HIERARCHY
ROOT pelvis
{
  OFFSET 0 100 0
  CHANNELS 6 Xposition Yposition Zposition Zrotation Xrotation Yrotation
  JOINT pelvis_right_femur
  {
    OFFSET -10.78128 -3.44521 -0.5502486
    CHANNELS 3 Zrotation Xrotation Yrotation
    JOINT right_femur_tibia
    {
      OFFSET -0.8047443 -44.0398 -0.1307829
      CHANNELS 3 Zrotation Xrotation Yrotation
      JOINT right_tibia_foot
      {
        OFFSET 3.006224 -47.83518 -5
        CHANNELS 3 Zrotation Xrotation Yrotation
        End Site
        {
          OFFSET 0 -5 15
        }
      }
    }
  }
  JOINT pelvis_left_femur
  {
    OFFSET 10.78128 -3.44521 -0.5502486
    CHANNELS 3 Zrotation Xrotation Yrotation
    JOINT left_femur_tibia
    {
      OFFSET 0.8047443 -44.0398 -0.1307829
      CHANNELS 3 Zrotation Xrotation Yrotation
      JOINT left_tibia_foot
      {
        OFFSET -4.370144 -48.10324 -4.275266
        CHANNELS 3 Zrotation Xrotation Yrotation
        End Site
        {
          OFFSET 0 -5 15
        }
      }
    }
  }
  JOINT pelvis_spine1
  {
    OFFSET 0 6.468898 -3.129235
    CHANNELS 3 Zrotation Xrotation Yrotation
    JOINT spine1
    {
      OFFSET 0 23.15396 4.99043
      CHANNELS 3 Zrotation Xrotation Yrotation
      JOINT spine2
      {
        OFFSET 0 20.79997 -5.064912
        CHANNELS 3 Zrotation Xrotation Yrotation
        JOINT neck
        {
          OFFSET 0 14.38658 9.616178
          CHANNELS 3 Zrotation Xrotation Yrotation
          End Site
          {
            OFFSET 0 20 0
          }
        }
      }
      JOINT right_manubrium
      {
        OFFSET -5.722621 16.35077 3.967754
        CHANNELS 3 Zrotation Xrotation Yrotation
        JOINT right_clavicle
        {
          OFFSET -13.16364 1.694482 -4.693211
          CHANNELS 3 Zrotation Xrotation Yrotation
          JOINT right_humerus
          {
            OFFSET -28.5034 -0.3100689 -2.792744
            CHANNELS 3 Zrotation Xrotation Yrotation
            JOINT right_radius
            {
              OFFSET -25.15693 0.02248979 -1.271978
              CHANNELS 3 Zrotation Xrotation Yrotation
              End Site
              {
                OFFSET -15 0 0
              }
            }
          }
        }
      }
      JOINT left_manubrium
      {
        OFFSET 5.722621 16.35077 3.967754
        CHANNELS 3 Zrotation Xrotation Yrotation
        JOINT left_clavicle
        {
          OFFSET 13.16364 1.694482 -4.693211
          CHANNELS 3 Zrotation Xrotation Yrotation
          JOINT left_humerus
          {
            OFFSET 29.39168 -1.063119 -2.237045
            CHANNELS 3 Zrotation Xrotation Yrotation
            JOINT left_radius
            {
              OFFSET 24.59957 -0.9528479 0.9047498
              CHANNELS 3 Zrotation Xrotation Yrotation
              End Site
              {
                OFFSET 15 -0 -0
              }
            }
          }
        }
      }
    }
  }
}
MOTION
Frames: 13
Frame Time: 0.0416666666667
0 103.5113 0 2.251481 -0.6018421 0.06039642 3.746463 -15.07865 12.54732 -0 37.54948 -0 -3.142376 -16.87915 -3.675691 -8.481325 9.271512 -21.41484 -0 5.434869 -0 21.29427 -8.631694 29.28424 -2.283794 -2.130152 5.064506 2.278129 10.47642 -7.2077 1.541868 21.2009 6.642304 3.229347 -25.12377 9.623056 5.580202 -18.9832 11.21282 86.65431 36.95419 -18.6806 -0 0 14.31997 -7.818127 8.431799 4.317266 6.311888 -20.75857 -1.858177 -91.39365 20.92707 20.02297 0 0 -16.46963 14.24554 12.9447 -2.593568
0.5212915 103.4481 1.756141 1.737508 0.5712104 0.08109032 4.921897 -18.53539 13.15405 -0 37.24247 -0 -3.518588 -16.33994 -3.444179 -8.403973 9.61388 -21.65859 -0 5.72512 -0 21.78871 -9.346656 29.90305 -2.300197 -2.061744 4.915131 2.45776 10.5144 -7.351476 1.546491 21.09806 6.7416 3.188777 -25.37701 9.828053 5.559588 -18.93964 11.25879 87.02972 37.21955 -19.13829 -0 0 13.95813 -7.289044 8.426198 4.112766 6.272535 -20.81246 -1.98146 -90.89165 20.75208 19.46984 0 0 -17.58539 14.6801 12.44859 -3.131846
0.8997179 103.241 3.615393 1.370145 0.7829935 0.1503003 5.005213 -20.40655 10.86318 -0 34.30662 -0 -4.39911 -15.26105 -3.047138 -8.014481 10.54759 -21.64105 -0 5.653755 -0 17.87507 -12.74258 28.72802 -2.240076 -1.878334 4.694889 2.62457 10.63727 -7.442907 1.472687 21.08954 6.705575 3.150273 -25.16568 9.557167 5.60017 -18.5461 11.46275 87.10007 37.082 -19.35115 -0 0 12.99424 -7.782005 8.690605 4.722898 6.081436 -20.79917 -2.181213 -90.2014 20.7187 18.70438 0 0 -18.43298 14.14524 11.84857 -2.541687
1.198358 103.0366 5.592271 0.8361683 1.719382 0.2458307 5.843499 -23.4826 10.63081 -0 32.77032 -0 -4.819112 -14.35341 -2.856849 -7.737518 11.04728 -21.61249 -0 5.823465 -0 16.3337 -14.6609 28.36083 -2.202464 -1.777089 4.533298 2.767742 10.69481 -7.553159 1.426507 21.03353 6.741831 3.125685 -25.15158 9.495983 5.595191 -18.34628 11.57197 87.32647 37.11584 -19.6963 -0 0 12.37332 -7.852154 8.818659 4.951939 6.003483 -20.84897 -2.316356 -89.66686 20.64245 18.12162 0 0 -19.36685 14.02164 11.3687 -2.397393
1.434456 102.7503 7.787421 0.3296902 2.34397 0.3933278 6.500041 -26.30915 9.834885 -0 30.38157 -0 -5.39687 -12.87565 -2.548003 -7.365458 11.59048 -21.2096 -0 6.222766 -0 14.52457 -16.54738 27.44085 -2.120229 -1.708663 4.345868 2.983853 10.72171 -7.724292 1.373014 20.94869 6.779766 3.06676 -25.23987 9.464274 5.596563 -18.12291 11.69219 87.64675 37.11845 -20.26568 -0 0 11.671 -7.757941 8.972111 5.128876 5.908971 -20.91487 -2.432681 -89.18545 20.73148 17.59543 0 0 -20.44426 13.80718 10.90545 -2.077112
1.632232 102.3886 10.30667 -0.1998471 3.001888 0.6106841 7.240925 -29.29708 9.124659 -0 27.5648 -0 -5.975268 -11.05042 -2.163366 -6.980432 12.11984 -20.56217 -0 6.951374 -0 13.09444 -18.08034 26.36676 -2.028991 -1.662423 4.167121 3.203799 10.72678 -7.902819 1.31692 20.85179 6.83302 3.009631 -25.36464 9.459453 5.589169 -17.92838 11.8015 88.00139 37.14965 -20.8828 -0 0 11.00872 -7.604829 9.117083 5.258158 5.834537 -20.99777 -2.530482 -88.74711 20.83509 17.1246 0 0 -21.54451 13.63081 10.4689 -1.777537
1.812619 101.9317 13.2743 -0.6711167 3.441507 0.9179196 7.781451 -31.90743 8.04546 -0 24.20905 -0 -6.638583 -8.815809 -1.640584 -6.583787 12.73856 -19.62847 -0 8.180394 -0 11.68668 -19.25425 24.89874 -1.919694 -1.634078 3.994387 3.431904 10.71604 -8.087994 1.255834 20.75123 6.886521 2.949507 -25.50331 9.452122 5.582872 -17.73614 11.91011 88.36493 37.16251 -21.54002 -0 0 10.3567 -7.446811 9.277335 5.378428 5.761898 -21.0879 -2.612928 -88.37157 20.9877 16.72524 0 0 -22.5912 13.41172 10.07133 -1.401356
1.994814 101.4114 16.8258 -1.098181 3.641207 1.340938 8.090036 -33.88945 6.631963 -0 20.67967 -0 -7.390627 -6.285632 -1.004413 -6.159175 13.48635 -18.48214 -0 10.2281 -0 10.01389 -19.97523 22.94433 -1.802559 -1.617709 3.836155 3.648884 10.69701 -8.265077 1.192582 20.65546 6.937465 2.894248 -25.63037 9.434335 5.577562 -17.55185 12.01348 88.71174 37.15483 -22.18361 -0 0 9.743085 -7.325947 9.448184 5.497136 5.694985 -21.18107 -2.683216 -88.05964 21.15794 16.39569 0 0 -23.52329 13.16325 9.720482 -0.980502
2.195937 100.9138 21.08607 -1.501356 3.49905 1.886616 8.139732 -34.74483 4.930882 -0 17.55066 -0 -8.21444 -3.650637 -0.3463745 -5.647996 14.32405 -17.16484 -0 13.55197 -0 7.580581 -20.03483 20.29147 -1.681388 -1.608378 3.696114 3.846084 10.67707 -8.428216 1.129258 20.57081 6.979663 2.845841 -25.72839 9.396345 5.576192 -17.37107 12.11058 89.02405 37.11002 -22.78802 -0 0 9.176681 -7.273759 9.633383 5.621831 5.63022 -21.27282 -2.745356 -87.81607 21.34022 16.13705 0 0 -24.28909 12.8705 9.423692 -0.5065756
2.427523 100.6035 26.12821 -1.939411 3.041573 2.512539 8.086277 -33.99193 3.300178 -0 15.53809 -0 -8.956318 -1.308209 0.09431546 -4.967099 14.99814 -15.68375 -0 18.65184 -0 3.943746 -19.05001 16.80012 -1.565511 -1.600361 3.581345 4.008408 10.66488 -8.567792 1.06958 20.50426 7.007651 2.808287 -25.77709 9.331266 5.579583 -17.19675 12.19684 89.27951 37.01819 -23.31161 -0 0 8.681557 -7.322111 9.828741 5.756899 5.568125 -21.35824 -2.803039 -87.64005 21.51597 15.9457 0 0 -24.83978 12.53347 9.188087 0.005956814
2.68275 100.6899 31.89247 -2.45377 2.48388 3.079975 8.207021 -31.40231 2.366396 -0 15.13425 -0 -9.334475 0.1135522 -0.05546869 -4.096147 14.92576 -13.97845 -0 25.76636 -0 -0.5507697 -16.48223 12.84361 -1.465543 -1.587922 3.500534 4.119815 10.66941 -8.673384 1.018257 20.46339 7.013998 2.78442 -25.75611 9.232265 5.588651 -17.03368 12.26687 89.45085 36.86695 -23.7065 -0 0 8.288159 -7.500676 10.02717 5.906838 5.508026 -21.42993 -2.859009 -87.53276 21.66947 15.8213 0 0 -25.12236 12.14876 9.023308 0.5458122
2.921341 101.3068 38.14366 -2.958365 1.98675 3.342569 8.618453 -27.34794 2.483185 -0 15.93763 -0 -9.331169 0.1456146 -0.993579 -3.182495 13.39751 -11.96 -0 34.74626 -0 -4.182367 -12.20435 9.630993 -1.392206 -1.566485 3.462831 4.16663 10.69693 -8.734249 0.9809297 20.4556 6.990634 2.774709 -25.65204 9.096626 5.604211 -16.89008 12.31507 89.50853 36.64765 -23.92217 -0 0 8.032675 -7.822943 10.21668 6.072709 5.447392 -21.47655 -2.91322 -87.50041 21.79192 15.77096 0 0 -25.08738 11.71559 8.941834 1.100163
3.093803 102.3982 44.5295 -3.145726 1.197387 3.067027 8.976227 -22.43363 3.124587 -0 16.6588 -0 -9.458382 -1.180581 -2.300768 -2.519417 10.023 -9.933446 -0 45.06466 -0 -5.425441 -7.442851 8.404501 -1.348396 -1.535048 3.47172 4.149698 10.74535 -8.74638 0.961546 20.48476 6.931592 2.773868 -25.47196 8.928772 5.627899 -16.77165 12.3401 89.43513 36.35834 -23.93602 -0 0 7.936697 -8.26844 10.38868 6.24945 5.377552 -21.48418 -2.961923 -87.55957 21.89964 15.81527 0 0 -24.70955 11.22631 8.955707 1.675272
